<svg width="240" height="200" viewBox="0 0 240 200" fill="none" xmlns="http://www.w3.org/2000/svg">
<path d="M0 41H20" stroke="#FB6500" stroke-width="10"/>
<path d="M0 151H20" stroke="#FB6500" stroke-width="10"/>
<path d="M25 0L25 115" stroke="#FB6500" stroke-width="10"/>
<path d="M25 130L25 200" stroke="#FB6500" stroke-width="10"/>
<line x1="20" y1="5" x2="220" y2="5" stroke="#FB6500" stroke-width="10"/>
<line x1="20" y1="195" x2="220" y2="195" stroke="#FB6500" stroke-width="10"/>
<path d="M93.0391 127.781C87.7005 127.781 83.5339 126.023 80.5391 122.508C77.5443 118.992 76.0469 114.109 76.0469 107.859C76.0469 100.073 77.0885 93.4193 79.1719 87.8984C81.2552 82.3516 84.263 78.1068 88.1953 75.1641C92.1276 72.2214 96.8542 70.75 102.375 70.75C107.661 70.75 111.789 72.4688 114.758 75.9062C117.727 79.3438 119.211 84.1224 119.211 90.2422C119.211 98.1068 118.169 104.839 116.086 110.438C114.003 116.036 111.008 120.333 107.102 123.328C103.221 126.297 98.5339 127.781 93.0391 127.781ZM94.2891 118.992C97.4401 118.992 100.135 117.898 102.375 115.711C104.641 113.497 106.372 110.32 107.57 106.18C108.768 102.039 109.367 97.0521 109.367 91.2188C109.367 87.5469 108.651 84.6823 107.219 82.625C105.786 80.5677 103.794 79.5391 101.242 79.5391C98.013 79.5391 95.2526 80.6198 92.9609 82.7812C90.6693 84.9427 88.9115 88.0677 87.6875 92.1562C86.4896 96.2188 85.8906 101.128 85.8906 106.883C85.8906 110.685 86.6328 113.654 88.1172 115.789C89.6016 117.924 91.6589 118.992 94.2891 118.992ZM126.164 110.125L127.453 101.297H131.828C139.979 101.297 146.151 100.151 150.344 97.8594C154.536 95.5677 156.633 92.1823 156.633 87.7031C156.633 85.0469 155.539 83.0417 153.352 81.6875C151.19 80.3073 148 79.6172 143.781 79.6172C138.104 79.6172 133.443 79.8776 129.797 80.3984L131.086 71.5312C134.523 71.0104 138.924 70.75 144.289 70.75C151.581 70.75 157.102 72.1432 160.852 74.9297C164.602 77.6901 166.477 81.7786 166.477 87.1953C166.477 94.7214 163.443 100.424 157.375 104.305C151.307 108.185 142.362 110.125 130.539 110.125H126.164ZM121.32 127L131.086 71.5312H140.578L130.812 127H121.32ZM150.734 127L143.078 102.391H153.117L161.32 127H150.734Z" fill="#FB6500"/>
<path d="M220 95H240" stroke="#FB6500" stroke-width="10"/>
<path d="M215 70L215 200" stroke="#FB6500" stroke-width="10"/>
<path d="M215 0L215 50" stroke="#FB6500" stroke-width="10"/>
</svg>
