<svg width="220" height="200" viewBox="0 0 220 200" fill="none" xmlns="http://www.w3.org/2000/svg">
<rect x="10" width="200" height="200" rx="10" fill="#EF0034"/>
<path d="M83.0391 127.781C77.7005 127.781 73.5339 126.023 70.5391 122.508C67.5443 118.992 66.0469 114.109 66.0469 107.859C66.0469 100.073 67.0885 93.4193 69.1719 87.8984C71.2552 82.3516 74.263 78.1068 78.1953 75.1641C82.1276 72.2214 86.8542 70.75 92.375 70.75C97.6615 70.75 101.789 72.4688 104.758 75.9062C107.727 79.3438 109.211 84.1224 109.211 90.2422C109.211 98.1068 108.169 104.839 106.086 110.438C104.003 116.036 101.008 120.333 97.1016 123.328C93.2214 126.297 88.5339 127.781 83.0391 127.781ZM84.2891 118.992C87.4401 118.992 90.1354 117.898 92.375 115.711C94.6406 113.497 96.3724 110.32 97.5703 106.18C98.7682 102.039 99.3672 97.0521 99.3672 91.2188C99.3672 87.5469 98.651 84.6823 97.2188 82.625C95.7865 80.5677 93.7943 79.5391 91.2422 79.5391C88.013 79.5391 85.2526 80.6198 82.9609 82.7812C80.6693 84.9427 78.9115 88.0677 77.6875 92.1562C76.4896 96.2188 75.8906 101.128 75.8906 106.883C75.8906 110.685 76.6328 113.654 78.1172 115.789C79.6016 117.924 81.6589 118.992 84.2891 118.992ZM116.164 110.125L117.453 101.297H121.828C129.979 101.297 136.151 100.151 140.344 97.8594C144.536 95.5677 146.633 92.1823 146.633 87.7031C146.633 85.0469 145.539 83.0417 143.352 81.6875C141.19 80.3073 138 79.6172 133.781 79.6172C128.104 79.6172 123.443 79.8776 119.797 80.3984L121.086 71.5312C124.523 71.0104 128.924 70.75 134.289 70.75C141.581 70.75 147.102 72.1432 150.852 74.9297C154.602 77.6901 156.477 81.7786 156.477 87.1953C156.477 94.7214 153.443 100.424 147.375 104.305C141.307 108.185 132.362 110.125 120.539 110.125H116.164ZM111.32 127L121.086 71.5312H130.578L120.812 127H111.32ZM140.734 127L133.078 102.391H143.117L151.32 127H140.734Z" fill="white"/>
<path d="M0 50H10" stroke="#EF0034" stroke-width="14"/>
<path d="M0 150H10" stroke="#EF0034" stroke-width="14"/>
<path d="M210 100H220" stroke="#EF0034" stroke-width="14"/>
</svg>
