<svg width="250" height="200" viewBox="0 0 250 200" fill="none" xmlns="http://www.w3.org/2000/svg">
<g clip-path="url(#clip0_4_31)">
<path d="M142.039 190.781C136.701 190.781 132.534 189.023 129.539 185.508C126.544 181.992 125.047 177.109 125.047 170.859C125.047 163.073 126.089 156.419 128.172 150.898C130.255 145.352 133.263 141.107 137.195 138.164C141.128 135.221 145.854 133.75 151.375 133.75C156.661 133.75 160.789 135.469 163.758 138.906C166.727 142.344 168.211 147.122 168.211 153.242C168.211 161.107 167.169 167.839 165.086 173.438C163.003 179.036 160.008 183.333 156.102 186.328C152.221 189.297 147.534 190.781 142.039 190.781ZM143.289 181.992C146.44 181.992 149.135 180.898 151.375 178.711C153.641 176.497 155.372 173.32 156.57 169.18C157.768 165.039 158.367 160.052 158.367 154.219C158.367 150.547 157.651 147.682 156.219 145.625C154.786 143.568 152.794 142.539 150.242 142.539C147.013 142.539 144.253 143.62 141.961 145.781C139.669 147.943 137.911 151.068 136.688 155.156C135.49 159.219 134.891 164.128 134.891 169.883C134.891 173.685 135.633 176.654 137.117 178.789C138.602 180.924 140.659 181.992 143.289 181.992ZM175.164 173.125L176.453 164.297H180.828C188.979 164.297 195.151 163.151 199.344 160.859C203.536 158.568 205.633 155.182 205.633 150.703C205.633 148.047 204.539 146.042 202.352 144.688C200.19 143.307 197 142.617 192.781 142.617C187.104 142.617 182.443 142.878 178.797 143.398L180.086 134.531C183.523 134.01 187.924 133.75 193.289 133.75C200.581 133.75 206.102 135.143 209.852 137.93C213.602 140.69 215.477 144.779 215.477 150.195C215.477 157.721 212.443 163.424 206.375 167.305C200.307 171.185 191.362 173.125 179.539 173.125H175.164ZM170.32 190L180.086 134.531H189.578L179.812 190H170.32ZM199.734 190L192.078 165.391H202.117L210.32 190H199.734Z" fill="#EF0034"/>
</g>
<rect x="30" y="5" width="190" height="190" rx="15" stroke="#EF0034" stroke-width="10"/>
<path d="M5 50H25" stroke="#EF0034" stroke-width="10" stroke-linecap="round"/>
<path d="M5 150H25" stroke="#EF0034" stroke-width="10" stroke-linecap="round"/>
<path d="M225 100H245" stroke="#EF0034" stroke-width="10" stroke-linecap="round"/>
<defs>
<clipPath id="clip0_4_31">
<rect x="35" y="10" width="180" height="180" rx="10" fill="white"/>
</clipPath>
</defs>
</svg>
