<svg width="200" height="200" viewBox="0 0 200 200" fill="none" xmlns="http://www.w3.org/2000/svg">
<path d="M180 95H200" stroke="#3178C6" stroke-width="10"/>
<path d="M0 41H20" stroke="#3178C6" stroke-width="10"/>
<path d="M0 151H20" stroke="#3178C6" stroke-width="10"/>
<path d="M175 70L175 200" stroke="#3178C6" stroke-width="10"/>
<path d="M175 5L175 55" stroke="#3178C6" stroke-width="10"/>
<path d="M25 0L25 115" stroke="#3178C6" stroke-width="10"/>
<path d="M25 130L25 200" stroke="#3178C6" stroke-width="10"/>
<line x1="20" y1="5" x2="180" y2="5" stroke="#3178C6" stroke-width="10"/>
<line x1="20" y1="195" x2="180" y2="195" stroke="#3178C6" stroke-width="10"/>
<path d="M73.0391 127.781C67.7005 127.781 63.5339 126.023 60.5391 122.508C57.5443 118.992 56.0469 114.109 56.0469 107.859C56.0469 100.073 57.0885 93.4193 59.1719 87.8984C61.2552 82.3516 64.263 78.1068 68.1953 75.1641C72.1276 72.2214 76.8542 70.75 82.375 70.75C87.6615 70.75 91.7891 72.4688 94.7578 75.9062C97.7266 79.3438 99.2109 84.1224 99.2109 90.2422C99.2109 98.1068 98.1693 104.839 96.0859 110.438C94.0026 116.036 91.0078 120.333 87.1016 123.328C83.2214 126.297 78.5339 127.781 73.0391 127.781ZM74.2891 118.992C77.4401 118.992 80.1354 117.898 82.375 115.711C84.6406 113.497 86.3724 110.32 87.5703 106.18C88.7682 102.039 89.3672 97.0521 89.3672 91.2188C89.3672 87.5469 88.651 84.6823 87.2188 82.625C85.7865 80.5677 83.7943 79.5391 81.2422 79.5391C78.013 79.5391 75.2526 80.6198 72.9609 82.7812C70.6693 84.9427 68.9115 88.0677 67.6875 92.1562C66.4896 96.2188 65.8906 101.128 65.8906 106.883C65.8906 110.685 66.6328 113.654 68.1172 115.789C69.6016 117.924 71.6589 118.992 74.2891 118.992ZM106.164 110.125L107.453 101.297H111.828C119.979 101.297 126.151 100.151 130.344 97.8594C134.536 95.5677 136.633 92.1823 136.633 87.7031C136.633 85.0469 135.539 83.0417 133.352 81.6875C131.19 80.3073 128 79.6172 123.781 79.6172C118.104 79.6172 113.443 79.8776 109.797 80.3984L111.086 71.5312C114.523 71.0104 118.924 70.75 124.289 70.75C131.581 70.75 137.102 72.1432 140.852 74.9297C144.602 77.6901 146.477 81.7786 146.477 87.1953C146.477 94.7214 143.443 100.424 137.375 104.305C131.307 108.185 122.362 110.125 110.539 110.125H106.164ZM101.32 127L111.086 71.5312H120.578L110.812 127H101.32ZM130.734 127L123.078 102.391H133.117L141.32 127H130.734Z" fill="#3178C6"/>
</svg>
