<svg width="240" height="200" viewBox="0 0 240 200" fill="none" xmlns="http://www.w3.org/2000/svg">
<path d="M0 41H20" stroke="#FB6500" stroke-width="10"/>
<path d="M0 151H20" stroke="#FB6500" stroke-width="10"/>
<path d="M25 0L25 115" stroke="#FB6500" stroke-width="10"/>
<path d="M25 130L25 200" stroke="#FB6500" stroke-width="10"/>
<line x1="20" y1="5" x2="220" y2="5" stroke="#FB6500" stroke-width="10"/>
<line x1="20" y1="195" x2="220" y2="195" stroke="#FB6500" stroke-width="10"/>
<path d="M122.039 174.781C116.701 174.781 112.534 173.023 109.539 169.508C106.544 165.992 105.047 161.109 105.047 154.859C105.047 147.073 106.089 140.419 108.172 134.898C110.255 129.352 113.263 125.107 117.195 122.164C121.128 119.221 125.854 117.75 131.375 117.75C136.661 117.75 140.789 119.469 143.758 122.906C146.727 126.344 148.211 131.122 148.211 137.242C148.211 145.107 147.169 151.839 145.086 157.438C143.003 163.036 140.008 167.333 136.102 170.328C132.221 173.297 127.534 174.781 122.039 174.781ZM123.289 165.992C126.44 165.992 129.135 164.898 131.375 162.711C133.641 160.497 135.372 157.32 136.57 153.18C137.768 149.039 138.367 144.052 138.367 138.219C138.367 134.547 137.651 131.682 136.219 129.625C134.786 127.568 132.794 126.539 130.242 126.539C127.013 126.539 124.253 127.62 121.961 129.781C119.669 131.943 117.911 135.068 116.688 139.156C115.49 143.219 114.891 148.128 114.891 153.883C114.891 157.685 115.633 160.654 117.117 162.789C118.602 164.924 120.659 165.992 123.289 165.992ZM155.164 157.125L156.453 148.297H160.828C168.979 148.297 175.151 147.151 179.344 144.859C183.536 142.568 185.633 139.182 185.633 134.703C185.633 132.047 184.539 130.042 182.352 128.688C180.19 127.307 177 126.617 172.781 126.617C167.104 126.617 162.443 126.878 158.797 127.398L160.086 118.531C163.523 118.01 167.924 117.75 173.289 117.75C180.581 117.75 186.102 119.143 189.852 121.93C193.602 124.69 195.477 128.779 195.477 134.195C195.477 141.721 192.443 147.424 186.375 151.305C180.307 155.185 171.362 157.125 159.539 157.125H155.164ZM150.32 174L160.086 118.531H169.578L159.812 174H150.32ZM179.734 174L172.078 149.391H182.117L190.32 174H179.734Z" fill="#FB6500"/>
<path d="M220 95H240" stroke="#FB6500" stroke-width="10"/>
<path d="M215 70L215 200" stroke="#FB6500" stroke-width="10"/>
<path d="M215 0L215 50" stroke="#FB6500" stroke-width="10"/>
</svg>
